#N canvas 647 247 1176 748 10;
#X obj 93 142 tgl 15 0 empty empty empty 17 7 0 10 -262144 -1 -1 1
1;
#X obj 70 239 random 12;
#X obj 68 438 osc~;
#X obj 68 349 mtof;
#X obj 157 601 dac~;
#X obj 143 242 random 12;
#X obj 141 441 osc~;
#X obj 141 352 mtof;
#X obj 92 62 loadbang;
#X msg 92 106 1;
#X obj 255 456 r myAmp;
#X obj 67 325 + 0;
#X obj 136 328 + 0;
#X floatatom 237 243 5 0 0 0 - - -, f 5;
#X obj 143 280 + 40;
#X obj 70 277 + 40;
#X obj 238 283 * 7;
#X obj 69 406 line~;
#X msg 68 379 \$1 20;
#X obj 146 407 line~;
#X msg 145 380 \$1 20;
#X obj 92 203 metro 20;
#X obj 66 495 *~ 0.5;
#X obj 183 518 *~ 0.5;
#X obj 716 253 bng 15 250 50 0 empty empty empty 17 7 0 10 -262144
-1 -1;
#X obj 618 486 noise~;
#X obj 815 534 line~;
#X obj 694 596 *~;
#X obj 524 651 *~ 0.5;
#X obj 751 408 del 50;
#X msg 805 457 0 50;
#X obj 621 533 *~ 0.25;
#X obj 601 595 *~ 2;
#X obj 716 308 t b b;
#X obj 238 207 r pitchOffset @hv_param 0 10 0;
#X text 302 232 @hv_param makes this a public variable;
#X text 301 247 0 10 0 indicates min max init_value;
#X obj 487 534 osc~ 50;
#X obj 716 195 t b;
#X msg 890 453 1 50;
#X obj 716 163 r bounceNow @hv_param;
#X connect 0 0 21 0;
#X connect 1 0 15 0;
#X connect 2 0 22 0;
#X connect 3 0 18 0;
#X connect 5 0 14 0;
#X connect 6 0 23 0;
#X connect 7 0 20 0;
#X connect 8 0 9 0;
#X connect 9 0 0 0;
#X connect 10 0 22 1;
#X connect 10 0 23 1;
#X connect 11 0 3 0;
#X connect 12 0 7 0;
#X connect 13 0 16 0;
#X connect 14 0 12 0;
#X connect 15 0 11 0;
#X connect 16 0 12 1;
#X connect 16 0 11 1;
#X connect 17 0 2 0;
#X connect 18 0 17 0;
#X connect 19 0 6 0;
#X connect 20 0 19 0;
#X connect 21 0 1 0;
#X connect 21 0 5 0;
#X connect 22 0 4 0;
#X connect 23 0 4 1;
#X connect 24 0 33 0;
#X connect 25 0 31 0;
#X connect 26 0 27 1;
#X connect 27 0 28 0;
#X connect 28 0 4 0;
#X connect 28 0 4 1;
#X connect 29 0 30 0;
#X connect 30 0 26 0;
#X connect 31 0 27 0;
#X connect 32 0 27 0;
#X connect 33 0 29 0;
#X connect 33 1 39 0;
#X connect 34 0 13 0;
#X connect 37 0 32 0;
#X connect 38 0 24 0;
#X connect 39 0 26 0;
#X connect 40 0 38 0;
